<svg width="20" height="19" viewBox="0 0 20 19" fill="none" xmlns="http://www.w3.org/2000/svg">
<path d="M5.16797 15.5V17.5" stroke="#3D3D3D" stroke-width="1.5" stroke-linecap="round" stroke-linejoin="round"/>
<path d="M14.168 15.5V17.5" stroke="#3D3D3D" stroke-width="1.5" stroke-linecap="round" stroke-linejoin="round"/>
<path d="M4.16797 8.5V3.44444C4.16797 2.92875 4.326 2.43417 4.60731 2.06951C4.88861 1.70486 5.27014 1.5 5.66797 1.5C6.06579 1.5 6.44732 1.70486 6.72863 2.06951C7.00993 2.43417 7.16797 2.92875 7.16797 3.44444" stroke="#3D3D3D" stroke-width="1.5" stroke-linecap="round" stroke-linejoin="round"/>
<path d="M16.168 7.5H11.168V10.5H16.168V7.5Z" stroke="#3D3D3D" stroke-width="1.5" stroke-linecap="round" stroke-linejoin="round"/>
<path d="M15.9537 8.5H18.5251C18.6956 8.5 18.8591 8.56705 18.9797 8.68639C19.1002 8.80573 19.168 8.96759 19.168 9.13636V11.6818C19.168 12.6945 18.7616 13.6656 18.0382 14.3817C17.3149 15.0977 16.3338 15.5 15.3108 15.5H5.02511C4.00213 15.5 3.02105 15.0977 2.2977 14.3817C1.57435 13.6656 1.16797 12.6945 1.16797 11.6818V9.13636C1.16797 8.96759 1.2357 8.80573 1.35626 8.68639C1.47682 8.56705 1.64033 8.5 1.81083 8.5H10.8108" stroke="#3D3D3D" stroke-width="1.5" stroke-linecap="round" stroke-linejoin="round"/>
</svg>
