<svg width="16" height="17" viewBox="0 0 16 17" fill="none" xmlns="http://www.w3.org/2000/svg">
<path fill-rule="evenodd" clip-rule="evenodd" d="M12.8346 2.5H14.668C15.4043 2.5 16.0013 3.09695 16.0013 3.83333V15.1667C16.0013 15.903 15.4043 16.5 14.668 16.5H2.0013C1.26492 16.5 0.667969 15.903 0.667969 15.1667V3.83333C0.667969 3.09695 1.26492 2.5 2.0013 2.5H3.0013C3.1854 2.5 3.33464 2.64924 3.33464 2.83333V4.33333C3.33464 4.60948 3.55849 4.83333 3.83464 4.83333C4.11078 4.83333 4.33464 4.60948 4.33464 4.33333V1.16667C4.33464 0.798477 4.63311 0.5 5.0013 0.5C5.36949 0.5 5.66797 0.798477 5.66797 1.16667V2.334C5.66834 2.42579 5.74285 2.5 5.83464 2.5H10.0013C10.1854 2.5 10.3346 2.64924 10.3346 2.83333V4.33333C10.3346 4.60948 10.5585 4.83333 10.8346 4.83333C11.1108 4.83333 11.3346 4.60948 11.3346 4.33333V1.16667C11.3346 0.798477 11.6331 0.5 12.0013 0.5C12.3695 0.5 12.668 0.798477 12.668 1.16667V2.33333C12.668 2.42538 12.7426 2.5 12.8346 2.5ZM2.33464 15.1667H14.3346C14.5187 15.1667 14.668 15.0174 14.668 14.8333V6.83333C14.668 6.64924 14.5187 6.5 14.3346 6.5H2.33464C2.15054 6.5 2.0013 6.64924 2.0013 6.83333V14.8333C2.0013 15.0174 2.15054 15.1667 2.33464 15.1667Z" fill="#3D3D3D"/>
</svg>
