<svg width="21" height="17" viewBox="0 0 21 17" fill="none" xmlns="http://www.w3.org/2000/svg">
<path d="M1.16797 7.33057H19.8346" stroke="#3D3D3D" stroke-width="1.5" stroke-linecap="round" stroke-linejoin="round"/>
<path d="M18.668 13.1665V14.9163C18.668 15.071 18.5942 15.2194 18.4629 15.3288C18.3317 15.4382 18.1536 15.4996 17.968 15.4996H15.868C15.6823 15.4996 15.5043 15.4382 15.373 15.3288C15.2417 15.2194 15.168 15.071 15.168 14.9163V13.1665" stroke="#3D3D3D" stroke-width="1.5" stroke-linecap="round" stroke-linejoin="round"/>
<path d="M5.83594 13.1665V14.9163C5.83594 15.071 5.76219 15.2194 5.63091 15.3288C5.49964 15.4382 5.32159 15.4996 5.13594 15.4996H3.03594C2.85029 15.4996 2.67224 15.4382 2.54096 15.3288C2.40969 15.2194 2.33594 15.071 2.33594 14.9163V13.1665" stroke="#3D3D3D" stroke-width="1.5" stroke-linecap="round" stroke-linejoin="round"/>
<path d="M4.66797 9.6665H7.0013" stroke="#3D3D3D" stroke-width="1.5" stroke-linecap="round" stroke-linejoin="round"/>
<path d="M14 9.6665H16.3333" stroke="#3D3D3D" stroke-width="1.5" stroke-linecap="round" stroke-linejoin="round"/>
<path d="M18.6693 7.6759L16.1257 1.91173C16.0729 1.78978 15.9861 1.68594 15.8759 1.61284C15.7656 1.53974 15.6366 1.50053 15.5047 1.5H5.50052C5.36857 1.50053 5.23961 1.53974 5.12935 1.61284C5.0191 1.68594 4.9323 1.78978 4.87951 1.91173L2.33594 7.6759V13.1656H18.6693V7.6759Z" stroke="#3D3D3D" stroke-width="1.5" stroke-linecap="round" stroke-linejoin="round"/>
</svg>
