<svg width="181" height="60" viewBox="0 0 181 60" fill="none" xmlns="http://www.w3.org/2000/svg">
<g clip-path="url(#clip0_921_4183)">
<path d="M95.5956 15.0751C95.5956 17.2372 93.9648 18.979 91.9404 18.979C89.9161 18.979 88.2853 17.2372 88.2853 15.0751C88.2853 12.9129 89.8598 11.1712 91.9404 11.1712C94.021 11.2312 95.5956 12.973 95.5956 15.0751ZM80.5252 22.9429C80.5252 23.3033 80.5252 23.9039 80.5252 23.9039C80.5252 23.9039 78.782 21.5015 75.0707 21.5015C68.9413 21.5015 64.1616 26.4865 64.1616 33.3934C64.1616 40.2402 68.8851 45.2853 75.0707 45.2853C78.8383 45.2853 80.5252 42.8228 80.5252 42.8228V43.8438C80.5252 44.3243 80.8626 44.6847 81.3125 44.6847H85.8673V22.1021C85.8673 22.1021 81.7061 22.1021 81.3125 22.1021C80.8626 22.1021 80.5252 22.5225 80.5252 22.9429ZM80.5252 37.4174C79.6817 38.7387 77.9948 39.8799 75.9704 39.8799C72.3715 39.8799 69.6161 37.4775 69.6161 33.3934C69.6161 29.3093 72.3715 26.9069 75.9704 26.9069C77.9385 26.9069 79.738 28.1081 80.5252 29.3694V37.4174ZM89.2413 22.1021H94.6396V44.6847H89.2413V22.1021ZM169.879 21.5015C166.167 21.5015 164.424 23.9039 164.424 23.9039V11.2312H159.026V44.6847C159.026 44.6847 163.187 44.6847 163.581 44.6847C164.031 44.6847 164.368 44.2643 164.368 43.8438V42.8228C164.368 42.8228 166.111 45.2853 169.823 45.2853C175.952 45.2853 180.732 40.2402 180.732 33.3934C180.732 26.5465 175.952 21.5015 169.879 21.5015ZM168.979 39.8198C166.898 39.8198 165.268 38.6787 164.424 37.3573V29.3093C165.268 28.1081 167.067 26.8468 168.979 26.8468C172.578 26.8468 175.333 29.2492 175.333 33.3333C175.333 37.4174 172.578 39.8198 168.979 39.8198ZM156.214 31.2913V44.7447H150.816V31.9519C150.816 28.2282 149.691 26.7267 146.655 26.7267C145.024 26.7267 143.337 27.6276 142.269 28.9489V44.6847H136.87V22.1021H141.144C141.594 22.1021 141.931 22.5225 141.931 22.9429V23.9039C143.506 22.1622 145.586 21.5015 147.667 21.5015C150.029 21.5015 151.997 22.2222 153.571 23.6637C155.483 25.3453 156.214 27.5075 156.214 31.2913ZM123.768 21.5015C120.057 21.5015 118.314 23.9039 118.314 23.9039V11.2312H112.915V44.6847C112.915 44.6847 117.076 44.6847 117.47 44.6847C117.92 44.6847 118.257 44.2643 118.257 43.8438V42.8228C118.257 42.8228 120 45.2853 123.712 45.2853C129.841 45.2853 134.621 40.2402 134.621 33.3934C134.677 26.5465 129.897 21.5015 123.768 21.5015ZM122.868 39.8198C120.788 39.8198 119.157 38.6787 118.314 37.3573V29.3093C119.157 28.1081 120.956 26.8468 122.868 26.8468C126.467 26.8468 129.223 29.2492 129.223 33.3333C129.223 37.4174 126.467 39.8198 122.868 39.8198ZM108.248 21.5015C109.879 21.5015 110.722 21.8018 110.722 21.8018V27.1471C110.722 27.1471 106.224 25.5255 103.412 28.9489V44.7447H98.0136V22.1021C98.0136 22.1021 102.175 22.1021 102.568 22.1021C103.018 22.1021 103.356 22.5225 103.356 22.9429V23.9039C104.368 22.6426 106.561 21.5015 108.248 21.5015ZM52.184 42.6426C51.9029 41.9219 51.6217 41.1411 51.3405 40.4805C50.8907 39.3994 50.4408 38.3784 50.0472 37.4174L49.991 37.3573C46.1109 28.3483 41.9497 19.2192 37.5636 10.2102L37.3949 9.84985C36.945 8.94895 36.4952 7.98799 36.0453 7.02703C35.483 5.94594 34.9206 4.8048 34.0209 3.72372C32.2215 1.32132 29.6348 0 26.8794 0C24.0678 0 21.5373 1.32132 19.6816 3.6036C18.8381 4.68468 18.2196 5.82582 17.6572 6.90691C17.2074 7.86787 16.7575 8.82883 16.3077 9.72973L16.139 10.0901C11.8091 19.0991 7.59162 28.2282 3.71157 37.2372L3.65534 37.3573C3.26171 38.3183 2.81185 39.3393 2.36199 40.4204C2.08083 41.0811 1.79967 41.8018 1.5185 42.5826C0.787481 44.8048 0.562551 46.9069 0.843714 49.0691C1.46227 53.5736 4.2739 57.3573 8.15395 59.039C9.61599 59.6997 11.1343 60 12.7088 60C13.1586 60 13.721 59.9399 14.1708 59.8799C16.0265 59.6396 17.9384 58.979 19.7941 57.8378C22.0996 56.4564 24.2927 54.4745 26.7669 51.5916C29.2412 54.4745 31.4905 56.4564 33.7398 57.8378C35.5954 58.979 37.5073 59.6396 39.363 59.8799C39.8129 59.9399 40.3752 60 40.8251 60C42.3996 60 43.9741 59.6997 45.3799 59.039C49.3162 57.3573 52.0716 53.5135 52.6901 49.0691C53.14 46.967 52.9151 44.8649 52.184 42.6426ZM26.8232 45.7658C23.7866 41.6817 21.8185 37.8378 21.1437 34.5946C20.8625 33.2132 20.8063 32.012 20.975 30.9309C21.0874 29.97 21.4248 29.1291 21.8747 28.4084C22.9431 26.7868 24.7425 25.7658 26.8232 25.7658C28.9038 25.7658 30.7594 26.7267 31.7716 28.4084C32.2215 29.1291 32.5589 29.97 32.6713 30.9309C32.84 32.012 32.7838 33.2733 32.5026 34.5946C31.8279 37.7778 29.8597 41.6216 26.8232 45.7658ZM49.2599 48.5886C48.8663 51.7117 46.8982 54.4144 44.1428 55.6156C42.7932 56.2162 41.3312 56.3964 39.8691 56.2162C38.4633 56.036 37.0575 55.5555 35.5954 54.6546C33.5711 53.4534 31.5467 51.5916 29.1849 48.8288C32.8963 43.964 35.1456 39.5195 35.9891 35.5555C36.3827 33.6937 36.4389 32.012 36.2702 30.4504C36.0453 28.9489 35.5392 27.5676 34.7519 26.3664C33.0087 23.6637 30.0846 22.1021 26.8232 22.1021C23.5617 22.1021 20.6376 23.7237 18.8944 26.3664C18.1071 27.5676 17.601 28.9489 17.3761 30.4504C17.1512 32.012 17.2074 33.7537 17.6572 35.5555C18.5007 39.5195 20.8063 44.024 24.4614 48.8889C22.1559 51.6516 20.0752 53.5135 18.0509 54.7147C16.5888 55.6156 15.183 56.0961 13.7772 56.2763C12.2589 56.4564 10.7969 56.2162 9.50353 55.6757C6.74813 54.4745 4.77999 51.7718 4.38636 48.6486C4.21767 47.1471 4.33013 45.6456 4.89246 43.964C5.06116 43.3634 5.34232 42.7628 5.62348 42.042C6.01711 41.0811 6.46697 40.0601 6.91683 39.039L6.97306 38.9189C10.8531 29.97 15.0143 20.8408 19.3442 11.9519L19.5129 11.5916C19.9628 10.6907 20.4126 9.72973 20.8625 8.82883C21.3124 7.86787 21.8185 6.96697 22.437 6.18618C23.6179 4.74474 25.1924 3.96396 26.9356 3.96396C28.6788 3.96396 30.2533 4.74474 31.4342 6.18618C32.0528 6.96697 32.5589 7.86787 33.0087 8.82883C33.4586 9.72973 33.9085 10.6907 34.3583 11.5916L34.527 11.9519C38.8007 20.9009 42.9619 30.03 46.8419 38.979V39.039C47.2918 40 47.6854 41.0811 48.1353 42.042C48.4165 42.7628 48.6976 43.3634 48.8663 43.964C49.3162 45.5255 49.4849 47.027 49.2599 48.5886Z" fill="#9D9CA0"/>
</g>
<defs>
<clipPath id="clip0_921_4183">
<rect width="180" height="60" fill="white" transform="translate(0.730469)"/>
</clipPath>
</defs>
</svg>
