<svg width="180" height="60" viewBox="0 0 180 60" fill="none" xmlns="http://www.w3.org/2000/svg">
<g clip-path="url(#clip0_921_4167)">
<path fill-rule="evenodd" clip-rule="evenodd" d="M111.672 46.9208C101.214 55.4411 86.0584 59.9998 72.9903 59.9998C54.6843 59.9998 38.2143 52.5147 25.7402 40.0529C24.7682 39.0774 25.6322 37.7437 26.8202 38.5001C40.2663 47.1597 56.9163 52.3555 74.0883 52.3555C85.6804 52.3555 98.4244 49.7078 110.142 44.1936C111.924 43.3774 113.4 45.4875 111.672 46.9208Z" fill="#9D9CA0"/>
<path fill-rule="evenodd" clip-rule="evenodd" d="M116.011 41.4066C114.679 39.5154 107.173 40.5107 103.807 40.9487C102.781 41.088 102.619 40.0927 103.555 39.3959C109.531 34.7377 119.341 36.0914 120.493 37.6441C121.645 39.2168 120.187 50.0861 114.571 55.2818C113.707 56.0781 112.879 55.66 113.275 54.605C114.535 51.1212 117.361 43.3176 116.011 41.4066Z" fill="#9D9CA0"/>
<path fill-rule="evenodd" clip-rule="evenodd" d="M104.04 6.54961V2.0307C104.04 1.35386 104.508 0.895996 105.066 0.895996H123.372C123.966 0.895996 124.434 1.37377 124.434 2.0307V5.91259C124.434 6.56952 123.93 7.40562 123.048 8.7593L113.58 23.7294C117.108 23.6299 120.834 24.2072 124.02 26.1979C124.74 26.6558 124.938 27.3127 124.992 27.9497V32.7673C124.992 33.4242 124.326 34.2006 123.642 33.8024C118.008 30.5377 110.52 30.1793 104.292 33.8423C103.662 34.2205 102.996 33.464 102.996 32.8071V28.2284C102.996 27.4919 102.996 26.2377 103.662 25.1229L114.66 7.68432H105.102C104.508 7.68432 104.04 7.22645 104.04 6.54961Z" fill="#9D9CA0"/>
<path fill-rule="evenodd" clip-rule="evenodd" d="M37.2395 34.7775H31.6775C31.1375 34.7377 30.7235 34.2998 30.6875 33.7225V2.11C30.6875 1.47297 31.1735 0.975294 31.7675 0.975294H36.9695C37.5095 0.995201 37.9415 1.45306 37.9775 2.03037V6.17105H38.0855C39.4355 2.16972 41.9915 0.318359 45.4115 0.318359C48.9035 0.318359 51.0815 2.18963 52.6475 6.17105C53.9976 2.16972 57.0576 0.318359 60.3336 0.318359C62.6736 0.318359 65.2296 1.39334 66.7776 3.78219C68.5416 6.44975 68.1816 10.3117 68.1816 13.6959V33.6428C68.1816 34.2799 67.6956 34.7775 67.1016 34.7775H61.5396C60.9816 34.7377 60.5316 34.2401 60.5316 33.6428V16.8811C60.5316 15.5473 60.6396 12.2228 60.3696 10.9488C59.9556 8.81869 58.7136 8.22148 57.0936 8.22148C55.7436 8.22148 54.3396 9.21683 53.7636 10.8094C53.1876 12.402 53.2415 15.0695 53.2415 16.8612V33.6229C53.2415 34.26 52.7555 34.7576 52.1615 34.7576H46.6175C46.0595 34.7178 45.6095 34.2201 45.6095 33.6229V16.8612C45.6095 13.3376 46.1315 8.14185 42.1715 8.14185C38.1755 8.14185 38.3195 13.1983 38.3195 16.8612V33.6229C38.3195 34.26 37.8335 34.7775 37.2395 34.7775Z" fill="#9D9CA0"/>
<path fill-rule="evenodd" clip-rule="evenodd" d="M140.223 0.298828C148.485 0.298828 152.967 8.14222 152.967 18.1356C152.967 27.7706 148.017 35.4349 140.223 35.4349C132.105 35.4349 127.695 27.5915 127.695 17.7972C127.677 7.96306 132.159 0.298828 140.223 0.298828ZM140.259 6.76863C136.155 6.76863 135.903 12.9398 135.903 16.8018C135.903 20.6638 135.849 28.9252 140.223 28.9252C144.543 28.9252 144.741 22.2763 144.741 18.2152C144.741 15.5477 144.633 12.3625 143.913 9.83433C143.283 7.62464 142.041 6.76863 140.259 6.76863Z" fill="#9D9CA0"/>
<path fill-rule="evenodd" clip-rule="evenodd" d="M163.673 34.7779H158.129C157.571 34.7381 157.121 34.2404 157.121 33.6432V2.01084C157.175 1.43353 157.625 0.97567 158.201 0.97567H163.367C163.853 0.995577 164.249 1.37381 164.357 1.85158V6.68901H164.465C166.031 2.36917 168.209 0.298828 172.061 0.298828C174.563 0.298828 176.993 1.29418 178.559 4.02146C180.017 6.54966 180.017 10.8098 180.017 13.8556V33.7627C179.963 34.3201 179.495 34.758 178.937 34.758H173.357C172.853 34.7182 172.421 34.3002 172.367 33.7627V16.6027C172.367 13.1389 172.727 8.0825 168.875 8.0825C167.525 8.0825 166.265 9.07786 165.653 10.6107C164.861 12.5417 164.771 14.4727 164.771 16.6027V33.6233C164.753 34.2603 164.267 34.7779 163.673 34.7779Z" fill="#9D9CA0"/>
<path fill-rule="evenodd" clip-rule="evenodd" d="M89.4434 19.6682C89.4434 22.077 89.4974 24.0677 88.3994 26.1977C87.5174 27.9297 86.0954 29.0046 84.5474 29.0046C82.4054 29.0046 81.1634 27.1931 81.1634 24.5455C81.1634 19.29 85.4114 18.3344 89.4614 18.3344L89.4434 19.6682ZM95.0594 34.6782C94.6994 35.0365 94.1594 35.0763 93.7454 34.8175C91.8914 33.1254 91.5674 32.3291 90.5414 30.7167C87.4814 34.1606 85.3214 35.1958 81.3614 35.1958C76.6633 35.1958 73.0273 31.9907 73.0273 25.6005C73.0273 20.6038 75.4753 17.1997 78.9674 15.5275C81.9914 14.0544 86.2214 13.7956 89.4434 13.3776V12.5813C89.4434 11.1082 89.5514 9.37624 88.7594 8.1221C88.0934 6.98739 86.7794 6.50962 85.6274 6.50962C83.5034 6.50962 81.6134 7.72395 81.1454 10.2123C81.0554 10.7697 80.6774 11.3072 80.1734 11.347L74.7733 10.71C74.3233 10.5906 73.8013 10.1924 73.9453 9.41606C75.2053 2.18978 81.1274 0 86.4194 0C89.1374 0 92.6654 0.796284 94.8074 3.06569C97.5254 5.87259 97.2554 9.59522 97.2554 13.6563V23.2515C97.2554 26.138 98.3354 27.4121 99.3614 28.9648C99.7214 29.5222 99.7934 30.1792 99.3434 30.5972C98.2094 31.6722 96.1934 33.6231 95.0594 34.6782Z" fill="#9D9CA0"/>
<path fill-rule="evenodd" clip-rule="evenodd" d="M16.416 19.6682C16.416 22.077 16.47 24.0677 15.372 26.1977C14.49 27.9297 13.086 29.0046 11.52 29.0046C9.37802 29.0046 8.13602 27.1931 8.13602 24.5455C8.13602 19.29 12.384 18.3344 16.416 18.3344V19.6682ZM22.0321 34.6782C21.6721 35.0365 21.132 35.0763 20.718 34.8175C18.864 33.1254 18.54 32.3291 17.514 30.7167C14.454 34.1606 12.294 35.1958 8.33402 35.1958C3.65401 35.1958 0 31.9907 0 25.6005C0 20.6038 2.44801 17.1997 5.94001 15.5275C8.96402 14.0544 13.194 13.7956 16.416 13.3776V12.5813C16.416 11.1082 16.524 9.37624 15.75 8.1221C15.066 6.98739 13.77 6.50962 12.618 6.50962C10.494 6.50962 8.60402 7.72395 8.13602 10.2123C8.04602 10.7697 7.66802 11.3072 7.16402 11.347L1.764 10.71C1.314 10.5906 0.810002 10.1924 0.936002 9.41606C2.178 2.18978 8.10002 0 13.392 0C16.11 0 19.638 0.796284 21.7801 3.06569C24.4981 5.87259 24.2281 9.59522 24.2281 13.6563V23.2515C24.2281 26.138 25.3081 27.4121 26.3341 28.9648C26.6941 29.5222 26.7661 30.1792 26.3161 30.5972C25.1821 31.6722 23.1661 33.6231 22.0321 34.6782Z" fill="#9D9CA0"/>
</g>
<defs>
<clipPath id="clip0_921_4167">
<rect width="180" height="60" fill="white"/>
</clipPath>
</defs>
</svg>
