
      <svg
        width="191"
        height="40"
        viewBox="0 0 191 40"
        fill="none"
        xmlns="http://www.w3.org/2000/svg"
      >
        <path
          d="M23.7838 3.78378C23.7838 5.87351 22.0897 7.56757 20 7.56757C17.9103 7.56757 16.2162 5.87351 16.2162 3.78378C16.2162 1.69406 17.9103 0 20 0C22.0897 0 23.7838 1.69406 23.7838 3.78378Z"
          fill="#6E5DCF"
        />
        <path
          d="M23.7838 20C23.7838 22.0897 22.0897 23.7838 20 23.7838C17.9103 23.7838 16.2162 22.0897 16.2162 20C16.2162 17.9103 17.9103 16.2162 20 16.2162C22.0897 16.2162 23.7838 17.9103 23.7838 20Z"
          fill="#6E5DCF"
        />
        <path
          d="M23.7838 36.2162C23.7838 38.3059 22.0897 40 20 40C17.9103 40 16.2162 38.3059 16.2162 36.2162C16.2162 34.1265 17.9103 32.4324 20 32.4324C22.0897 32.4324 23.7838 34.1265 23.7838 36.2162Z"
          fill="#6E5DCF"
        />
        <path
          d="M36.2162 23.7838C34.1265 23.7838 32.4324 22.0897 32.4324 20C32.4324 17.9103 34.1265 16.2162 36.2162 16.2162C38.3059 16.2162 40 17.9103 40 20C40 22.0897 38.3059 23.7838 36.2162 23.7838Z"
          fill="#6E5DCF"
        />
        <path
          d="M3.78378 23.7838C1.69406 23.7838 -9.13448e-08 22.0897 0 20C9.13448e-08 17.9103 1.69406 16.2162 3.78378 16.2162C5.87351 16.2162 7.56757 17.9103 7.56757 20C7.56757 22.0897 5.87351 23.7838 3.78378 23.7838Z"
          fill="#6E5DCF"
        />
        <path
          d="M28.7911 34.1421C27.3134 32.6645 27.3134 30.2687 28.7911 28.7911C30.2688 27.3134 32.6645 27.3134 34.1422 28.7911C35.6198 30.2687 35.6198 32.6645 34.1422 34.1421C32.6645 35.6198 30.2688 35.6198 28.7911 34.1421Z"
          fill="#6E5DCF"
        />
        <path
          d="M5.85786 11.2089C4.3802 9.73128 4.3802 7.33552 5.85786 5.85786C7.33552 4.3802 9.73128 4.3802 11.2089 5.85786C12.6866 7.33552 12.6866 9.73128 11.2089 11.2089C9.73128 12.6866 7.33552 12.6866 5.85786 11.2089Z"
          fill="#6E5DCF"
        />
        <path
          d="M34.1421 11.2089C32.6644 12.6866 30.2687 12.6866 28.791 11.2089C27.3134 9.73123 27.3134 7.33547 28.791 5.85781C30.2687 4.38015 32.6644 4.38015 34.1421 5.85781C35.6198 7.33547 35.6198 9.73123 34.1421 11.2089Z"
          fill="#6E5DCF"
        />
        <path
          d="M11.209 34.1421C9.73132 35.6198 7.33556 35.6198 5.8579 34.1421C4.38024 32.6645 4.38024 30.2687 5.8579 28.7911C7.33556 27.3134 9.73132 27.3134 11.209 28.7911C12.6866 30.2687 12.6866 32.6645 11.209 34.1421Z"
          fill="#6E5DCF"
        />
        <path
          d="M53.8867 10.7852H56.2422V17.8984H65.1953V10.7852H67.5508V28H65.1953V19.9492H56.2422V28H53.8867V10.7852ZM75.8711 26.6406C77.2695 26.6406 78.2266 26.1133 78.7422 25.0586C79.2656 23.9961 79.5273 22.8164 79.5273 21.5195C79.5273 20.3477 79.3398 19.3945 78.9648 18.6602C78.3711 17.5039 77.3477 16.9258 75.8945 16.9258C74.6055 16.9258 73.668 17.418 73.082 18.4023C72.4961 19.3867 72.2031 20.5742 72.2031 21.9648C72.2031 23.3008 72.4961 24.4141 73.082 25.3047C73.668 26.1953 74.5977 26.6406 75.8711 26.6406ZM75.9531 15.0859C77.5703 15.0859 78.9375 15.625 80.0547 16.7031C81.1719 17.7812 81.7305 19.3672 81.7305 21.4609C81.7305 23.4844 81.2383 25.1562 80.2539 26.4766C79.2695 27.7969 77.7422 28.457 75.6719 28.457C73.9453 28.457 72.5742 27.875 71.5586 26.7109C70.543 25.5391 70.0352 23.9688 70.0352 22C70.0352 19.8906 70.5703 18.2109 71.6406 16.9609C72.7109 15.7109 74.1484 15.0859 75.9531 15.0859ZM84.25 15.4492H86.3359V17.2305C86.8359 16.6133 87.2891 16.1641 87.6953 15.8828C88.3906 15.4062 89.1797 15.168 90.0625 15.168C91.0625 15.168 91.8672 15.4141 92.4766 15.9062C92.8203 16.1875 93.1328 16.6016 93.4141 17.1484C93.8828 16.4766 94.4336 15.9805 95.0664 15.6602C95.6992 15.332 96.4102 15.168 97.1992 15.168C98.8867 15.168 100.035 15.7773 100.645 16.9961C100.973 17.6523 101.137 18.5352 101.137 19.6445V28H98.9453V19.2812C98.9453 18.4453 98.7344 17.8711 98.3125 17.5586C97.8984 17.2461 97.3906 17.0898 96.7891 17.0898C95.9609 17.0898 95.2461 17.3672 94.6445 17.9219C94.0508 18.4766 93.7539 19.4023 93.7539 20.6992V28H91.6094V19.8086C91.6094 18.957 91.5078 18.3359 91.3047 17.9453C90.9844 17.3594 90.3867 17.0664 89.5117 17.0664C88.7148 17.0664 87.9883 17.375 87.332 17.9922C86.6836 18.6094 86.3594 19.7266 86.3594 21.3438V28H84.25V15.4492ZM109.469 15.168C110.359 15.168 111.223 15.3789 112.059 15.8008C112.895 16.2148 113.531 16.7539 113.969 17.418C114.391 18.0508 114.672 18.7891 114.812 19.6328C114.938 20.2109 115 21.1328 115 22.3984H105.801C105.84 23.6719 106.141 24.6953 106.703 25.4688C107.266 26.2344 108.137 26.6172 109.316 26.6172C110.418 26.6172 111.297 26.2539 111.953 25.5273C112.328 25.1055 112.594 24.6172 112.75 24.0625H114.824C114.77 24.5234 114.586 25.0391 114.273 25.6094C113.969 26.1719 113.625 26.6328 113.242 26.9922C112.602 27.6172 111.809 28.0391 110.863 28.2578C110.355 28.3828 109.781 28.4453 109.141 28.4453C107.578 28.4453 106.254 27.8789 105.168 26.7461C104.082 25.6055 103.539 24.0117 103.539 21.9648C103.539 19.9492 104.086 18.3125 105.18 17.0547C106.273 15.7969 107.703 15.168 109.469 15.168ZM112.832 20.7227C112.746 19.8086 112.547 19.0781 112.234 18.5312C111.656 17.5156 110.691 17.0078 109.34 17.0078C108.371 17.0078 107.559 17.3594 106.902 18.0625C106.246 18.7578 105.898 19.6445 105.859 20.7227H112.832Z"
          fill="#686868"
        />
        <path
          d="M125.77 28H117.941V10.7266H126.332C128.449 10.7578 129.949 11.3711 130.832 12.5664C131.363 13.3008 131.629 14.1797 131.629 15.2031C131.629 16.2578 131.363 17.1055 130.832 17.7461C130.535 18.1055 130.098 18.4336 129.52 18.7305C130.402 19.0508 131.066 19.5586 131.512 20.2539C131.965 20.9492 132.191 21.793 132.191 22.7852C132.191 23.8086 131.934 24.7266 131.418 25.5391C131.09 26.0781 130.68 26.5312 130.188 26.8984C129.633 27.3203 128.977 27.6094 128.219 27.7656C127.469 27.9219 126.652 28 125.77 28ZM125.688 20.3945H121.387V25H125.629C126.387 25 126.977 24.8984 127.398 24.6953C128.164 24.3203 128.547 23.6016 128.547 22.5391C128.547 21.6406 128.176 21.0234 127.434 20.6875C127.02 20.5 126.438 20.4023 125.688 20.3945ZM127.48 17.1016C127.949 16.8203 128.184 16.3164 128.184 15.5898C128.184 14.7852 127.871 14.2539 127.246 13.9961C126.707 13.8164 126.02 13.7266 125.184 13.7266H121.387V17.5352H125.629C126.387 17.5352 127.004 17.3906 127.48 17.1016ZM143.148 26.1953C143.117 26.2344 143.039 26.3516 142.914 26.5469C142.789 26.7422 142.641 26.9141 142.469 27.0625C141.945 27.5312 141.438 27.8516 140.945 28.0234C140.461 28.1953 139.891 28.2812 139.234 28.2812C137.344 28.2812 136.07 27.6016 135.414 26.2422C135.047 25.4922 134.863 24.3867 134.863 22.9258V15.2266H138.285V22.9258C138.285 23.6523 138.371 24.1992 138.543 24.5664C138.848 25.2148 139.445 25.5391 140.336 25.5391C141.477 25.5391 142.258 25.0781 142.68 24.1562C142.898 23.6562 143.008 22.9961 143.008 22.1758V15.2266H146.395V28H143.148V26.1953ZM161.254 10.75V28H158.008V26.2305C157.531 26.9883 156.988 27.5391 156.379 27.8828C155.77 28.2266 155.012 28.3984 154.105 28.3984C152.613 28.3984 151.355 27.7969 150.332 26.5938C149.316 25.3828 148.809 23.832 148.809 21.9414C148.809 19.7617 149.309 18.0469 150.309 16.7969C151.316 15.5469 152.66 14.9219 154.34 14.9219C155.113 14.9219 155.801 15.0938 156.402 15.4375C157.004 15.7734 157.492 16.2422 157.867 16.8438V10.75H161.254ZM152.254 21.6953C152.254 22.875 152.488 23.8164 152.957 24.5195C153.418 25.2305 154.121 25.5859 155.066 25.5859C156.012 25.5859 156.73 25.2344 157.223 24.5312C157.715 23.8281 157.961 22.918 157.961 21.8008C157.961 20.2383 157.566 19.1211 156.777 18.4492C156.293 18.043 155.73 17.8398 155.09 17.8398C154.113 17.8398 153.395 18.2109 152.934 18.9531C152.48 19.6875 152.254 20.6016 152.254 21.6953ZM175.926 10.75V28H172.68V26.2305C172.203 26.9883 171.66 27.5391 171.051 27.8828C170.441 28.2266 169.684 28.3984 168.777 28.3984C167.285 28.3984 166.027 27.7969 165.004 26.5938C163.988 25.3828 163.48 23.832 163.48 21.9414C163.48 19.7617 163.98 18.0469 164.98 16.7969C165.988 15.5469 167.332 14.9219 169.012 14.9219C169.785 14.9219 170.473 15.0938 171.074 15.4375C171.676 15.7734 172.164 16.2422 172.539 16.8438V10.75H175.926ZM166.926 21.6953C166.926 22.875 167.16 23.8164 167.629 24.5195C168.09 25.2305 168.793 25.5859 169.738 25.5859C170.684 25.5859 171.402 25.2344 171.895 24.5312C172.387 23.8281 172.633 22.918 172.633 21.8008C172.633 20.2383 172.238 19.1211 171.449 18.4492C170.965 18.043 170.402 17.8398 169.762 17.8398C168.785 17.8398 168.066 18.2109 167.605 18.9531C167.152 19.6875 166.926 20.6016 166.926 21.6953ZM184.164 24.6484L186.801 15.2266H190.352L185.969 27.7891C185.125 30.2109 184.457 31.7109 183.965 32.2891C183.473 32.875 182.488 33.168 181.012 33.168C180.715 33.168 180.477 33.1641 180.297 33.1562C180.117 33.1562 179.848 33.1445 179.488 33.1211V30.4492L179.91 30.4727C180.238 30.4883 180.551 30.4766 180.848 30.4375C181.145 30.3984 181.395 30.3086 181.598 30.168C181.793 30.0352 181.973 29.7578 182.137 29.3359C182.309 28.9141 182.379 28.6562 182.348 28.5625L177.66 15.2266H181.375L184.164 24.6484Z"
          fill="#6E5DCF"
        />
      </svg>
   
