<svg width="46" height="48" viewBox="0 0 46 48" fill="none" xmlns="http://www.w3.org/2000/svg">
<path d="M30.8182 31.3333C30.8182 29.0181 24.6926 27.1429 17.1364 27.1429M30.8182 31.3333C30.8182 33.6486 24.6926 35.5238 17.1364 35.5238C9.58009 35.5238 3.45455 33.6486 3.45455 31.3333M30.8182 31.3333V41.6775C30.8182 44.064 24.6926 46 17.1364 46C9.58009 46 3.45455 44.0661 3.45455 41.6775V31.3333M30.8182 31.3333C38.2924 31.3333 44.5 29.2653 44.5 27.1429V6.19048M17.1364 27.1429C9.58009 27.1429 3.45455 29.0181 3.45455 31.3333M17.1364 27.1429C8.50118 27.1429 1.5 25.0749 1.5 22.9524V12.4762M17.1364 8.28571C8.50118 8.28571 1.5 10.161 1.5 12.4762M1.5 12.4762C1.5 14.7914 8.50118 16.6667 17.1364 16.6667C17.1364 18.7891 23.4945 20.8571 30.9687 20.8571C38.4409 20.8571 44.5 18.7891 44.5 16.6667M44.5 6.19048C44.5 3.87524 38.4409 2 30.9687 2C23.4945 2 17.4374 3.87524 17.4374 6.19048M44.5 6.19048C44.5 8.50571 38.4409 10.381 30.9687 10.381C23.4965 10.381 17.4374 8.50571 17.4374 6.19048M17.4374 6.19048V27.4907" stroke="#6E5DCF" stroke-width="3"/>
</svg>
