<svg width="16" height="17" viewBox="0 0 16 17" fill="none" xmlns="http://www.w3.org/2000/svg">
<path d="M14.9 0.0224609H1.1C0.808262 0.0224609 0.528473 0.115175 0.322183 0.280207C0.115893 0.445239 0 0.66907 0 0.902461V15.1425C0 15.3759 0.115893 15.5997 0.322183 15.7647C0.528473 15.9297 0.808262 16.0225 1.1 16.0225H6.68V9.82246H4.08V7.42246H6.68V5.62246C6.62614 5.19987 6.68851 4.77296 6.86272 4.37169C7.03693 3.97042 7.31877 3.6045 7.68847 3.29959C8.05817 2.99468 8.50677 2.75817 9.00283 2.60665C9.49888 2.45513 10.0304 2.39226 10.56 2.42246C11.3383 2.41863 12.1163 2.45068 12.89 2.51846V4.67846H11.3C10.04 4.67846 9.8 5.15846 9.8 5.85446V7.39846H12.8L12.41 9.79846H9.8V16.0225H14.9C15.0445 16.0225 15.1875 15.9997 15.321 15.9555C15.4544 15.9113 15.5757 15.8464 15.6778 15.7647C15.78 15.683 15.861 15.586 15.9163 15.4792C15.9715 15.3725 16 15.258 16 15.1425V0.902461C16 0.786898 15.9715 0.672466 15.9163 0.5657C15.861 0.458933 15.78 0.361923 15.6778 0.280207C15.5757 0.198491 15.4544 0.133671 15.321 0.089447C15.1875 0.0452229 15.0445 0.0224609 14.9 0.0224609Z" fill="white"/>
</svg>
