<svg width="257" height="61" viewBox="0 0 257 61" fill="none" xmlns="http://www.w3.org/2000/svg">
<path d="M35.6757 5.74208C35.6757 8.87667 33.1346 11.4178 30 11.4178C26.8654 11.4178 24.3243 8.87667 24.3243 5.74208C24.3243 2.60749 26.8654 0.0664062 30 0.0664062C33.1346 0.0664062 35.6757 2.60749 35.6757 5.74208Z" fill="white"/>
<path d="M35.6757 30.0664C35.6757 33.201 33.1346 35.7421 30 35.7421C26.8654 35.7421 24.3243 33.201 24.3243 30.0664C24.3243 26.9318 26.8654 24.3907 30 24.3907C33.1346 24.3907 35.6757 26.9318 35.6757 30.0664Z" fill="white"/>
<path d="M35.6757 54.3907C35.6757 57.5253 33.1346 60.0664 30 60.0664C26.8654 60.0664 24.3243 57.5253 24.3243 54.3907C24.3243 51.2561 26.8654 48.7151 30 48.7151C33.1346 48.7151 35.6757 51.2561 35.6757 54.3907Z" fill="white"/>
<path d="M54.3243 35.7421C51.1897 35.7421 48.6486 33.201 48.6486 30.0664C48.6486 26.9318 51.1897 24.3907 54.3243 24.3907C57.4589 24.3907 60 26.9318 60 30.0664C60 33.201 57.4589 35.7421 54.3243 35.7421Z" fill="white"/>
<path d="M5.67568 35.7421C2.54109 35.7421 -1.37017e-07 33.201 0 30.0664C1.37017e-07 26.9318 2.54109 24.3907 5.67568 24.3907C8.81027 24.3907 11.3514 26.9318 11.3514 30.0664C11.3514 33.201 8.81026 35.7421 5.67568 35.7421Z" fill="white"/>
<path d="M43.1867 51.2796C40.9702 49.0631 40.9702 45.4695 43.1867 43.253C45.4032 41.0365 48.9968 41.0365 51.2133 43.253C53.4298 45.4695 53.4298 49.0631 51.2133 51.2796C48.9968 53.4961 45.4032 53.4961 43.1867 51.2796Z" fill="white"/>
<path d="M8.78679 16.8798C6.5703 14.6633 6.5703 11.0697 8.78679 8.8532C11.0033 6.63671 14.5969 6.63671 16.8134 8.8532C19.0299 11.0697 19.0299 14.6633 16.8134 16.8798C14.5969 19.0963 11.0033 19.0963 8.78679 16.8798Z" fill="white"/>
<path d="M51.2132 16.8797C48.9967 19.0962 45.403 19.0962 43.1865 16.8797C40.97 14.6633 40.97 11.0696 43.1865 8.85313C45.403 6.63664 48.9967 6.63664 51.2132 8.85313C53.4296 11.0696 53.4296 14.6633 51.2132 16.8797Z" fill="white"/>
<path d="M16.8135 51.2796C14.597 53.4961 11.0033 53.4961 8.78685 51.2796C6.57036 49.0631 6.57036 45.4695 8.78685 43.253C11.0033 41.0365 14.597 41.0365 16.8135 43.253C19.03 45.4695 19.03 49.0631 16.8135 51.2796Z" fill="white"/>
<path d="M74.5156 18.1133H77.6562V27.5977H89.5938V18.1133H92.7344V41.0664H89.5938V30.332H77.6562V41.0664H74.5156V18.1133ZM103.828 39.2539C105.693 39.2539 106.969 38.5508 107.656 37.1445C108.354 35.7279 108.703 34.1549 108.703 32.4258C108.703 30.8633 108.453 29.5924 107.953 28.6133C107.161 27.0716 105.797 26.3008 103.859 26.3008C102.141 26.3008 100.891 26.957 100.109 28.2695C99.3281 29.582 98.9375 31.1654 98.9375 33.0195C98.9375 34.8008 99.3281 36.2852 100.109 37.4727C100.891 38.6602 102.13 39.2539 103.828 39.2539ZM103.938 23.8477C106.094 23.8477 107.917 24.5664 109.406 26.0039C110.896 27.4414 111.641 29.556 111.641 32.3477C111.641 35.0456 110.984 37.2747 109.672 39.0352C108.359 40.7956 106.323 41.6758 103.562 41.6758C101.26 41.6758 99.4323 40.8997 98.0781 39.3477C96.724 37.7852 96.0469 35.6914 96.0469 33.0664C96.0469 30.2539 96.7604 28.0143 98.1875 26.3477C99.6146 24.681 101.531 23.8477 103.938 23.8477ZM115 24.332H117.781V26.707C118.448 25.8841 119.052 25.2852 119.594 24.9102C120.521 24.2747 121.573 23.957 122.75 23.957C124.083 23.957 125.156 24.2852 125.969 24.9414C126.427 25.3164 126.844 25.8685 127.219 26.5977C127.844 25.7018 128.578 25.0404 129.422 24.6133C130.266 24.1758 131.214 23.957 132.266 23.957C134.516 23.957 136.047 24.7695 136.859 26.3945C137.297 27.2695 137.516 28.4466 137.516 29.9258V41.0664H134.594V29.4414C134.594 28.3268 134.312 27.5612 133.75 27.1445C133.198 26.7279 132.521 26.5195 131.719 26.5195C130.615 26.5195 129.661 26.8893 128.859 27.6289C128.068 28.3685 127.672 29.6029 127.672 31.332V41.0664H124.812V30.1445C124.812 29.0091 124.677 28.181 124.406 27.6602C123.979 26.8789 123.182 26.4883 122.016 26.4883C120.953 26.4883 119.984 26.8997 119.109 27.7227C118.245 28.5456 117.812 30.0352 117.812 32.1914V41.0664H115V24.332ZM148.625 23.957C149.812 23.957 150.964 24.2383 152.078 24.8008C153.193 25.3529 154.042 26.0716 154.625 26.957C155.188 27.8008 155.562 28.7852 155.75 29.9102C155.917 30.681 156 31.9102 156 33.5977H143.734C143.786 35.2956 144.188 36.6602 144.938 37.6914C145.688 38.7122 146.849 39.2227 148.422 39.2227C149.891 39.2227 151.062 38.7383 151.938 37.7695C152.438 37.207 152.792 36.556 153 35.8164H155.766C155.693 36.431 155.448 37.1185 155.031 37.8789C154.625 38.6289 154.167 39.2435 153.656 39.7227C152.802 40.556 151.745 41.1185 150.484 41.4102C149.807 41.5768 149.042 41.6602 148.188 41.6602C146.104 41.6602 144.339 40.9049 142.891 39.3945C141.443 37.8737 140.719 35.7487 140.719 33.0195C140.719 30.332 141.448 28.1497 142.906 26.4727C144.365 24.7956 146.271 23.957 148.625 23.957ZM153.109 31.3633C152.995 30.1445 152.729 29.1706 152.312 28.4414C151.542 27.0872 150.255 26.4102 148.453 26.4102C147.161 26.4102 146.078 26.8789 145.203 27.8164C144.328 28.7435 143.865 29.9258 143.812 31.3633H153.109ZM170.359 41.0664H159.922V18.0352H171.109C173.932 18.0768 175.932 18.8945 177.109 20.4883C177.818 21.4674 178.172 22.6393 178.172 24.0039C178.172 25.4102 177.818 26.5404 177.109 27.3945C176.714 27.8737 176.13 28.3112 175.359 28.707C176.536 29.1341 177.422 29.8112 178.016 30.7383C178.62 31.6654 178.922 32.7904 178.922 34.1133C178.922 35.4779 178.578 36.7018 177.891 37.7852C177.453 38.5039 176.906 39.1081 176.25 39.5977C175.51 40.1602 174.635 40.5456 173.625 40.7539C172.625 40.9622 171.536 41.0664 170.359 41.0664ZM170.25 30.9258H164.516V37.0664H170.172C171.182 37.0664 171.969 36.931 172.531 36.6602C173.552 36.1602 174.062 35.2018 174.062 33.7852C174.062 32.5872 173.568 31.7643 172.578 31.3164C172.026 31.0664 171.25 30.9362 170.25 30.9258ZM172.641 26.5352C173.266 26.1602 173.578 25.4883 173.578 24.5195C173.578 23.4466 173.161 22.7383 172.328 22.3945C171.609 22.1549 170.693 22.0352 169.578 22.0352H164.516V27.1133H170.172C171.182 27.1133 172.005 26.9206 172.641 26.5352ZM193.531 38.6602C193.49 38.7122 193.385 38.8685 193.219 39.1289C193.052 39.3893 192.854 39.6185 192.625 39.8164C191.927 40.4414 191.25 40.8685 190.594 41.0977C189.948 41.3268 189.188 41.4414 188.312 41.4414C185.792 41.4414 184.094 40.5352 183.219 38.7227C182.729 37.7227 182.484 36.2487 182.484 34.3008V24.0352H187.047V34.3008C187.047 35.2695 187.161 35.9987 187.391 36.4883C187.797 37.3529 188.594 37.7852 189.781 37.7852C191.302 37.7852 192.344 37.1706 192.906 35.9414C193.198 35.2747 193.344 34.3945 193.344 33.3008V24.0352H197.859V41.0664H193.531V38.6602ZM217.672 18.0664V41.0664H213.344V38.707C212.708 39.7174 211.984 40.4518 211.172 40.9102C210.359 41.3685 209.349 41.5977 208.141 41.5977C206.151 41.5977 204.474 40.7956 203.109 39.1914C201.755 37.5768 201.078 35.5091 201.078 32.9883C201.078 30.082 201.745 27.7956 203.078 26.1289C204.422 24.4622 206.214 23.6289 208.453 23.6289C209.484 23.6289 210.401 23.8581 211.203 24.3164C212.005 24.7643 212.656 25.3893 213.156 26.1914V18.0664H217.672ZM205.672 32.6602C205.672 34.2331 205.984 35.4883 206.609 36.4258C207.224 37.3737 208.161 37.8477 209.422 37.8477C210.682 37.8477 211.641 37.3789 212.297 36.4414C212.953 35.5039 213.281 34.2904 213.281 32.8008C213.281 30.7174 212.755 29.2279 211.703 28.332C211.057 27.7904 210.307 27.5195 209.453 27.5195C208.151 27.5195 207.193 28.0143 206.578 29.0039C205.974 29.9831 205.672 31.2018 205.672 32.6602ZM237.234 18.0664V41.0664H232.906V38.707C232.271 39.7174 231.547 40.4518 230.734 40.9102C229.922 41.3685 228.911 41.5977 227.703 41.5977C225.714 41.5977 224.036 40.7956 222.672 39.1914C221.318 37.5768 220.641 35.5091 220.641 32.9883C220.641 30.082 221.307 27.7956 222.641 26.1289C223.984 24.4622 225.776 23.6289 228.016 23.6289C229.047 23.6289 229.964 23.8581 230.766 24.3164C231.568 24.7643 232.219 25.3893 232.719 26.1914V18.0664H237.234ZM225.234 32.6602C225.234 34.2331 225.547 35.4883 226.172 36.4258C226.786 37.3737 227.724 37.8477 228.984 37.8477C230.245 37.8477 231.203 37.3789 231.859 36.4414C232.516 35.5039 232.844 34.2904 232.844 32.8008C232.844 30.7174 232.318 29.2279 231.266 28.332C230.62 27.7904 229.87 27.5195 229.016 27.5195C227.714 27.5195 226.755 28.0143 226.141 29.0039C225.536 29.9831 225.234 31.2018 225.234 32.6602ZM248.219 36.5977L251.734 24.0352H256.469L250.625 40.7852C249.5 44.0143 248.609 46.0143 247.953 46.7852C247.297 47.5664 245.984 47.957 244.016 47.957C243.62 47.957 243.302 47.9518 243.062 47.9414C242.823 47.9414 242.464 47.9258 241.984 47.8945V44.332L242.547 44.3633C242.984 44.3841 243.401 44.3685 243.797 44.3164C244.193 44.2643 244.526 44.1445 244.797 43.957C245.057 43.7799 245.297 43.4102 245.516 42.8477C245.745 42.2852 245.839 41.9414 245.797 41.8164L239.547 24.0352H244.5L248.219 36.5977Z" fill="white"/>
</svg>
