<svg width="184" height="60" viewBox="0 0 184 60" fill="none" xmlns="http://www.w3.org/2000/svg">
<path d="M45.2919 21.1872H23.8294V27.5209H39.0538C38.2977 36.3997 30.8672 40.1884 23.8585 40.1884C19.3464 40.1884 15.0191 38.4059 11.8285 35.233C8.63799 32.0601 6.84556 27.7567 6.84556 23.2695C6.84556 18.7824 8.63799 14.479 11.8285 11.3061C15.0191 8.13323 19.3464 6.35072 23.8585 6.35072C28.1353 6.34411 32.248 7.98733 35.3313 10.9347L39.7954 6.33626C35.4835 2.19058 29.6954 -0.0869066 23.6985 0.00253843C20.6261 0.0243767 17.588 0.647821 14.7578 1.83727C11.9277 3.02673 9.36079 4.7589 7.20376 6.93488C5.04673 9.11086 3.34179 11.688 2.1863 14.5193C1.03081 17.3505 0.447388 20.3804 0.469348 23.4358C0.491307 26.4913 1.11822 29.5126 2.31429 32.3271C3.51035 35.1416 5.25216 37.6943 7.44024 39.8394C9.62833 41.9845 12.2198 43.68 15.0668 44.8291C17.9138 45.9782 20.9605 46.5584 24.033 46.5366C36.5528 46.5366 45.7281 38.0048 45.7281 25.3808C45.754 23.9728 45.6223 22.5663 45.3355 21.1872H45.2919ZM62.8719 16.6032C59.9032 16.6147 57.0043 17.4999 54.5407 19.1472C52.0771 20.7946 50.159 23.1304 49.0282 25.8601C47.8974 28.5899 47.6046 31.5915 48.1866 34.4866C48.7686 37.3816 50.1994 40.0405 52.2986 42.1281C54.3978 44.2157 57.0715 45.6386 59.9826 46.2174C62.8938 46.7962 65.9121 46.5049 68.657 45.3804C71.402 44.2559 73.7508 42.3484 75.4073 39.8984C77.0638 37.4484 77.9539 34.5656 77.9654 31.6133C77.9968 29.6335 77.6279 27.6676 76.8805 25.8324C76.1331 23.9972 75.0225 22.3301 73.6146 20.93C72.2068 19.5299 70.5303 18.4254 68.6849 17.6822C66.8395 16.9389 64.8627 16.572 62.8719 16.6032ZM62.9591 22.4742C64.789 22.367 66.6091 22.8091 68.1833 23.7431C69.7575 24.6771 71.0132 26.0599 71.7874 27.7122C72.5617 29.3646 72.8189 31.2101 72.5255 33.0096C72.2322 34.809 71.402 36.4793 70.1425 37.8038C68.8829 39.1283 67.2523 40.0458 65.462 40.4375C63.6718 40.8291 61.8045 40.6767 60.1023 40.0001C58.4002 39.3235 56.9418 38.1539 55.9162 36.6429C54.8907 35.132 54.3453 33.3494 54.3509 31.5265C54.2899 30.3631 54.467 29.1995 54.8717 28.1062C55.2763 27.013 55.9 26.0128 56.7049 25.1664C57.5098 24.3199 58.4792 23.6449 59.5542 23.1821C60.6293 22.7193 61.7877 22.4785 62.9591 22.4742ZM95.7636 16.6032C92.7942 16.6118 89.8939 17.4946 87.4284 19.1402C84.9628 20.7859 83.0425 23.1206 81.9095 25.8502C80.7765 28.5797 80.4816 31.5818 81.0619 34.4778C81.6423 37.3738 83.0719 40.034 85.1706 42.1231C87.2692 44.2121 89.9429 45.6364 92.8544 46.2164C95.766 46.7963 98.785 46.5059 101.531 45.3818C104.277 44.2577 106.626 42.3503 108.283 39.8999C109.941 37.4496 110.831 34.5662 110.843 31.6133C110.874 29.6347 110.505 27.6701 109.759 25.8358C109.012 24.0016 107.903 22.3351 106.497 20.9352C105.09 19.5353 103.416 18.4306 101.572 17.6864C99.7284 16.9423 97.7531 16.574 95.7636 16.6032ZM95.8508 22.4742C97.6807 22.367 99.5008 22.8091 101.075 23.7431C102.649 24.6771 103.905 26.0599 104.679 27.7122C105.453 29.3646 105.711 31.2101 105.417 33.0096C105.124 34.809 104.294 36.4793 103.034 37.8038C101.775 39.1283 100.144 40.0458 98.3537 40.4375C96.5634 40.8291 94.6961 40.6767 92.994 40.0001C91.2919 39.3235 89.8335 38.1539 88.8079 36.6429C87.7823 35.132 87.237 33.3494 87.2426 31.5265C87.1815 30.3631 87.3587 29.1995 87.7633 28.1062C88.168 27.013 88.7916 26.0128 89.5965 25.1664C90.4015 24.3199 91.3708 23.6449 92.4459 23.1821C93.521 22.7193 94.6794 22.4785 95.8508 22.4742ZM128.001 16.6177C119.916 16.6177 113.562 23.66 113.562 31.5554C113.502 35.4137 114.965 39.1416 117.637 41.9395C120.31 44.7374 123.978 46.3826 127.855 46.5221C129.42 46.6069 130.983 46.3222 132.416 45.6914C133.849 45.0606 135.111 44.1015 136.1 42.8925V45.7846C136.1 50.947 132.945 54.0271 128.19 54.0271C126.532 54.0135 124.915 53.508 123.547 52.5755C122.18 51.6429 121.123 50.3257 120.512 48.7924L114.696 51.1929C115.821 53.8267 117.706 56.0693 120.114 57.637C122.521 59.2046 125.342 60.0268 128.219 59.9993C136.26 59.9993 142.382 54.9671 142.382 44.4109V17.5143H136.115V20.0448C135.087 18.9304 133.831 18.0478 132.431 17.4567C131.032 16.8655 129.521 16.5794 128.001 16.6177ZM128.583 22.4742C132.552 22.4742 136.609 25.8435 136.609 31.5844C136.609 37.3252 132.552 40.6511 128.495 40.6511C127.348 40.6221 126.218 40.3637 125.174 39.8913C124.129 39.419 123.191 38.7423 122.414 37.9016C121.638 37.0609 121.04 36.0735 120.656 34.9981C120.272 33.9227 120.109 32.7814 120.178 31.6422C120.178 25.858 124.337 22.4742 128.583 22.4742ZM170.461 16.5743C162.841 16.5743 156.428 22.6044 156.428 31.5121C156.353 33.4752 156.681 35.433 157.392 37.2659C158.102 39.0989 159.181 40.7687 160.562 42.1733C161.943 43.5779 163.598 44.6879 165.425 45.4356C167.251 46.1833 169.212 46.553 171.188 46.5221C173.665 46.527 176.106 45.9317 178.3 44.7879C180.494 43.644 182.375 41.9859 183.78 39.957L178.574 36.5154C177.82 37.788 176.741 38.8396 175.446 39.5634C174.152 40.2872 172.687 40.6575 171.202 40.6367C169.659 40.7 168.133 40.3029 166.819 39.4963C165.505 38.6896 164.464 37.5105 163.83 36.1105L183.998 27.7957L182.951 25.3519C181.99 22.8132 180.284 20.6203 178.054 19.0578C175.824 17.4952 173.173 16.635 170.446 16.5888L170.461 16.5743ZM170.722 22.3585C171.86 22.3098 172.988 22.5845 173.974 23.1505C174.961 23.7165 175.765 24.5503 176.291 25.5543L162.826 31.1505C162.76 30.0566 162.911 28.9604 163.273 27.9251C163.634 26.8898 164.198 25.936 164.932 25.1186C165.666 24.3012 166.556 23.6365 167.55 23.1628C168.544 22.689 169.622 22.4157 170.722 22.3585ZM146.817 45.64H153.448V1.54982H146.817V45.64Z" fill="#9D9CA0"/>
</svg>
