<svg width="16" height="17" viewBox="0 0 16 17" fill="none" xmlns="http://www.w3.org/2000/svg">
<path d="M8.82241 0.0234452C9.40617 0.0212051 9.98993 0.0270722 10.5735 0.0410447L10.7287 0.0466445C10.9079 0.0530442 11.0847 0.061044 11.2983 0.0706436C12.1494 0.110642 12.7302 0.245038 13.2398 0.442631C13.7678 0.645824 14.2125 0.921015 14.6573 1.3658C15.064 1.76547 15.3787 2.24893 15.5797 2.78255C15.7773 3.29213 15.9116 3.87371 15.9516 4.72488C15.9612 4.93768 15.9692 5.11527 15.9756 5.29447L15.9804 5.44966C15.9947 6.03299 16.0008 6.6165 15.9988 7.2L15.9996 7.79678V8.84475C16.0016 9.42852 15.9955 10.0123 15.9812 10.5959L15.9764 10.7511C15.97 10.9303 15.962 11.1071 15.9524 11.3207C15.9124 12.1718 15.7765 12.7526 15.5797 13.2622C15.3794 13.7964 15.0646 14.2802 14.6573 14.6797C14.2573 15.0864 13.7736 15.4011 13.2398 15.6021C12.7302 15.7997 12.1494 15.9341 11.2983 15.9741C11.0847 15.9837 10.9079 15.9917 10.7287 15.9981L10.5735 16.0029C9.98993 16.0171 9.40617 16.0233 8.82241 16.0213L8.22564 16.0221H7.17849C6.59473 16.0241 6.01097 16.0179 5.42738 16.0037L5.27219 15.9989C5.08229 15.992 4.89243 15.984 4.70262 15.9749C3.85146 15.9349 3.27069 15.7989 2.76032 15.6021C2.22649 15.4016 1.74296 15.0868 1.34359 14.6797C0.93645 14.28 0.621409 13.7962 0.42044 13.2622C0.22285 12.7526 0.088457 12.1718 0.0484591 11.3207C0.0395499 11.1308 0.0315502 10.941 0.0244603 10.7511L0.0204606 10.5959C0.00571225 10.0123 -0.000954789 9.42852 0.000461577 8.84475V7.2C-0.00177108 6.6165 0.00409591 6.033 0.0180607 5.44966L0.0236604 5.29447C0.0300601 5.11527 0.0380597 4.93768 0.0476592 4.72488C0.0876571 3.87291 0.22205 3.29293 0.41964 2.78255C0.620728 2.24867 0.936385 1.76534 1.34439 1.3666C1.74349 0.959215 2.22672 0.643882 2.76032 0.442631C3.27069 0.245038 3.85066 0.110642 4.70262 0.0706436L5.27219 0.0466445L5.42738 0.0426447C6.0107 0.0279035 6.59419 0.0212363 7.17769 0.0226453L8.82241 0.0234452ZM8.00005 4.02331C7.47008 4.01581 6.94391 4.11373 6.45211 4.31135C5.96031 4.50898 5.5127 4.80239 5.13527 5.17451C4.75785 5.54664 4.45815 5.99007 4.25359 6.47904C4.04903 6.968 3.94369 7.49274 3.94369 8.02277C3.94369 8.5528 4.04903 9.07755 4.25359 9.56651C4.45815 10.0555 4.75785 10.4989 5.13527 10.871C5.5127 11.2432 5.96031 11.5366 6.45211 11.7342C6.94391 11.9318 7.47008 12.0297 8.00005 12.0222C9.06086 12.0222 10.0782 11.6008 10.8283 10.8507C11.5784 10.1006 11.9998 9.0832 11.9998 8.02237C11.9998 6.96154 11.5784 5.94416 10.8283 5.19404C10.0782 4.44392 9.06086 4.02331 8.00005 4.02331ZM8.00005 5.62325C8.31884 5.61738 8.6356 5.67509 8.93184 5.79301C9.22808 5.91094 9.49784 6.08671 9.72538 6.31007C9.95293 6.53342 10.1337 6.79988 10.2571 7.09388C10.3805 7.38788 10.4441 7.70352 10.4441 8.02237C10.4442 8.34121 10.3807 8.65688 10.2574 8.95092C10.1341 9.24495 9.95342 9.51147 9.72596 9.7349C9.49849 9.95833 9.22878 10.1342 8.93258 10.2522C8.63639 10.3702 8.31964 10.4281 8.00085 10.4223C7.36436 10.4223 6.75395 10.1694 6.30388 9.71937C5.85382 9.2693 5.60097 8.65887 5.60097 8.02237C5.60097 7.38588 5.85382 6.77545 6.30388 6.32537C6.75395 5.8753 7.36436 5.62245 8.00085 5.62245L8.00005 5.62325ZM12.1998 2.82335C11.9418 2.83368 11.6977 2.94347 11.5188 3.12972C11.3398 3.31597 11.2399 3.56423 11.2399 3.82252C11.2399 4.0808 11.3398 4.32906 11.5188 4.51532C11.6977 4.70157 11.9418 4.81135 12.1998 4.82168C12.465 4.82168 12.7194 4.71633 12.9069 4.5288C13.0944 4.34127 13.1998 4.08692 13.1998 3.82172C13.1998 3.55651 13.0944 3.30216 12.9069 3.11463C12.7194 2.9271 12.465 2.82175 12.1998 2.82175V2.82335Z" fill="white"/>
</svg>
