<svg width="16" height="17" viewBox="0 0 16 17" fill="none" xmlns="http://www.w3.org/2000/svg">
<g clip-path="url(#clip0_921_4981)">
<path d="M0 1.16846C0 0.535461 0.526 0.0224609 1.175 0.0224609H14.825C15.474 0.0224609 16 0.535461 16 1.16846V14.8765C16 15.5095 15.474 16.0225 14.825 16.0225H1.175C0.526 16.0225 0 15.5095 0 14.8765V1.16846ZM4.943 13.4165V6.19146H2.542V13.4165H4.943ZM3.743 5.20446C4.58 5.20446 5.101 4.65046 5.101 3.95646C5.086 3.24746 4.581 2.70846 3.759 2.70846C2.937 2.70846 2.4 3.24846 2.4 3.95646C2.4 4.65046 2.921 5.20446 3.727 5.20446H3.743ZM8.651 13.4165V9.38146C8.651 9.16546 8.667 8.94946 8.731 8.79546C8.904 8.36446 9.299 7.91746 9.963 7.91746C10.832 7.91746 11.179 8.57946 11.179 9.55146V13.4165H13.58V9.27246C13.58 7.05246 12.396 6.02046 10.816 6.02046C9.542 6.02046 8.971 6.72046 8.651 7.21346V7.23846H8.635C8.64031 7.23011 8.64564 7.22178 8.651 7.21346V6.19146H6.251C6.281 6.86946 6.251 13.4165 6.251 13.4165H8.651Z" fill="white"/>
</g>
<defs>
<clipPath id="clip0_921_4981">
<rect width="16" height="16" fill="white" transform="translate(0 0.0224609)"/>
</clipPath>
</defs>
</svg>
