<svg width="282" height="60" viewBox="0 0 282 60" fill="none" xmlns="http://www.w3.org/2000/svg">
<g clip-path="url(#clip0_921_4177)">
<path d="M100.019 34.5579L98.3422 39.3021H98.2025C97.9232 38.2323 97.4109 36.6044 96.5728 34.6509L87.5858 12.0928H78.7852V48.0463H84.6057V25.8603C84.6057 24.4649 84.6057 22.8835 84.5591 20.93C84.5126 19.9533 84.4195 19.2091 84.3729 18.651H84.5126C84.792 20.0463 85.1179 21.0696 85.3507 21.7207L96.1537 47.9533H100.251L110.961 21.4882C111.194 20.8835 111.427 19.6742 111.66 18.651H111.799C111.66 21.3021 111.567 23.6742 111.52 25.1161V47.9068H117.713V11.9998H109.238L100.019 34.5579ZM123.58 22.1393H129.634V47.9068H123.58V22.1393ZM126.653 11.2556C125.629 11.2556 124.791 11.6277 124.092 12.2789C123.394 12.93 123.021 13.7672 123.021 14.7905C123.021 15.7672 123.394 16.6044 124.092 17.2556C124.791 17.9068 125.629 18.2324 126.653 18.2324C127.678 18.2324 128.563 17.8603 129.214 17.2556C129.913 16.6044 130.285 15.7672 130.285 14.7905C130.285 13.8137 129.913 12.9765 129.214 12.2789C128.609 11.6277 127.724 11.2556 126.653 11.2556ZM151.1 21.9068C149.982 21.6742 148.818 21.5347 147.701 21.5347C144.953 21.5347 142.439 22.1393 140.343 23.3486C138.248 24.5579 136.572 26.2323 135.501 28.3254C134.383 30.4649 133.824 32.93 133.824 35.7672C133.824 38.2323 134.383 40.4184 135.454 42.4184C136.525 44.3719 138.015 45.9533 140.017 47.023C141.927 48.0928 144.162 48.6509 146.676 48.6509C149.563 48.6509 152.031 48.0463 153.987 46.93L154.033 46.8835V41.3021L153.801 41.4882C152.916 42.1393 151.891 42.6975 150.867 43.023C149.796 43.3951 148.818 43.5812 147.98 43.5812C145.559 43.5812 143.649 42.8835 142.299 41.3486C140.902 39.8603 140.204 37.8137 140.204 35.2556C140.204 32.6044 140.902 30.5114 142.346 28.9765C143.789 27.4416 145.698 26.651 148.027 26.651C149.982 26.651 151.984 27.3021 153.801 28.6044L154.033 28.7905V22.8835L153.987 22.837C153.195 22.5114 152.31 22.1393 151.1 21.9068ZM171.076 21.7207C169.586 21.7207 168.189 22.1858 166.978 23.1626C165.954 23.9998 165.255 25.2091 164.65 26.651H164.603V22.1393H158.55V47.9068H164.603V34.744C164.603 32.5114 165.069 30.651 166.094 29.3021C167.118 27.9068 168.422 27.2091 170.005 27.2091C170.564 27.2091 171.122 27.3486 171.821 27.4417C172.473 27.6277 172.938 27.8137 173.264 28.0463L173.497 28.2323V22.1858L173.358 22.1393C172.939 21.8603 172.1 21.7207 171.076 21.7207ZM187.56 21.5812C183.322 21.5812 179.923 22.837 177.548 25.3021C175.127 27.7672 173.963 31.1626 173.963 35.4416C173.963 39.4416 175.174 42.6975 177.502 45.0696C179.83 47.3951 182.996 48.6044 186.954 48.6044C191.099 48.6044 194.405 47.3486 196.78 44.837C199.201 42.3254 200.365 38.9765 200.365 34.837C200.365 30.744 199.247 27.4882 196.966 25.1161C194.777 22.744 191.564 21.5812 187.56 21.5812ZM192.402 41.3951C191.285 42.837 189.515 43.5347 187.327 43.5347C185.138 43.5347 183.369 42.837 182.112 41.3021C180.854 39.8603 180.249 37.7672 180.249 35.1161C180.249 32.3719 180.901 30.2789 182.112 28.7905C183.369 27.3021 185.092 26.5579 187.28 26.5579C189.422 26.5579 191.099 27.2556 192.309 28.6975C193.52 30.1393 194.172 32.2323 194.172 34.9765C194.079 37.7672 193.567 39.9533 192.402 41.3951ZM213.869 32.837C211.96 32.0463 210.749 31.4416 210.19 30.93C209.724 30.4649 209.492 29.8137 209.492 28.9765C209.492 28.2789 209.771 27.5812 210.469 27.1161C211.168 26.651 211.96 26.4184 213.124 26.4184C214.148 26.4184 215.219 26.6044 216.243 26.8835C217.268 27.1626 218.199 27.5812 218.944 28.1393L219.177 28.3254V22.651L219.037 22.6044C218.339 22.3254 217.408 22.0463 216.29 21.8137C215.172 21.6277 214.148 21.5347 213.31 21.5347C210.423 21.5347 208.048 22.2323 206.186 23.7672C204.323 25.2091 203.438 27.1626 203.438 29.4416C203.438 30.6509 203.624 31.7207 204.044 32.6044C204.463 33.4882 205.068 34.3254 205.906 35.023C206.744 35.6742 207.955 36.4184 209.631 37.1161C211.028 37.7207 212.099 38.1858 212.751 38.5579C213.403 38.93 213.822 39.3486 214.148 39.6742C214.381 40.0463 214.521 40.5114 214.521 41.1161C214.521 42.837 213.217 43.6742 210.563 43.6742C209.538 43.6742 208.467 43.4882 207.21 43.0695C205.953 42.6509 204.789 42.0463 203.811 41.3486L203.578 41.1626V47.0695L203.718 47.1161C204.602 47.5347 205.673 47.8137 206.977 48.1393C208.281 48.3719 209.445 48.5579 210.469 48.5579C213.589 48.5579 216.15 47.8602 217.966 46.3254C219.829 44.837 220.807 42.93 220.807 40.4649C220.807 38.744 220.341 37.2091 219.317 36.0463C217.966 34.93 216.29 33.7672 213.869 32.837ZM236.778 21.5812C232.541 21.5812 229.142 22.837 226.767 25.3021C224.392 27.7672 223.182 31.1626 223.182 35.4416C223.182 39.4416 224.392 42.6975 226.72 45.0696C229.049 47.3951 232.215 48.6044 236.173 48.6044C240.317 48.6044 243.623 47.3486 245.998 44.837C248.42 42.3254 249.584 38.9765 249.584 34.837C249.584 30.744 248.466 27.4882 246.184 25.1161C243.996 22.744 240.783 21.5812 236.778 21.5812ZM241.575 41.3951C240.457 42.837 238.688 43.5347 236.499 43.5347C234.264 43.5347 232.541 42.837 231.284 41.3021C230.027 39.8603 229.421 37.7672 229.421 35.1161C229.421 32.3719 230.073 30.2789 231.284 28.7905C232.541 27.3021 234.264 26.5579 236.452 26.5579C238.548 26.5579 240.271 27.2556 241.481 28.6975C242.692 30.1393 243.344 32.2323 243.344 34.9765C243.344 37.7672 242.739 39.9533 241.575 41.3951ZM281.946 27.1161V22.1393H275.846V14.5114L275.66 14.5579L269.886 16.2789L269.746 16.3254V22.1393H260.619V18.8835C260.619 17.3951 260.992 16.2324 261.644 15.4882C262.296 14.744 263.274 14.3719 264.484 14.3719C265.322 14.3719 266.207 14.5579 267.185 14.9765L267.418 15.1161V9.86026L267.278 9.81375C266.44 9.53468 265.322 9.34863 263.879 9.34863C262.063 9.34863 260.48 9.76724 259.036 10.4649C257.593 11.2556 256.522 12.3254 255.73 13.7672C254.939 15.1626 254.519 16.744 254.519 18.5579V22.1393H250.282V27.0696H254.519V47.9068H260.619V27.1161H269.746V40.3719C269.746 45.8137 272.307 48.5579 277.429 48.5579C278.267 48.5579 279.152 48.4184 279.99 48.2789C280.875 48.0928 281.527 47.8602 281.899 47.6742L281.946 47.6277V42.6509L281.713 42.837C281.341 43.0695 281.015 43.2556 280.456 43.3951C279.99 43.5347 279.571 43.5812 279.245 43.5812C278.034 43.5812 277.196 43.3021 276.591 42.6044C276.032 41.9533 275.753 40.8835 275.753 39.3021V27.1161H281.946Z" fill="#9D9CA0"/>
<path d="M0.742188 0H29.2862V28.5116H0.742188V0Z" fill="#9D9CA0"/>
<path d="M32.2656 0H60.8096V28.5116H32.2656V0Z" fill="#9D9CA0"/>
<path d="M0.742188 31.4883H29.2862V59.9999H0.742188V31.4883Z" fill="#9D9CA0"/>
<path d="M32.2656 31.4883H60.8096V59.9999H32.2656V31.4883Z" fill="#9D9CA0"/>
</g>
<defs>
<clipPath id="clip0_921_4177">
<rect width="281.249" height="60" fill="white" transform="translate(0.742188)"/>
</clipPath>
</defs>
</svg>
