<svg width="43" height="44" viewBox="0 0 43 44" fill="none" xmlns="http://www.w3.org/2000/svg">
<path d="M21.5072 26.9087H21.6245C24.1371 26.9674 26.1473 28.7604 26.1473 30.9648C26.1473 32.8459 24.6899 34.4183 22.7133 34.8886V36.5346C22.7133 37.1224 22.1773 37.5927 21.5072 37.5927C20.8372 37.5927 20.3012 37.1224 20.3012 36.5346V34.8886C19.3169 34.6564 18.4472 34.1463 17.8265 33.437C17.2058 32.7278 16.8687 31.8589 16.8672 30.9648C16.8672 30.3769 17.4032 29.9067 18.0733 29.9067C18.7433 29.9067 19.2793 30.3769 19.2793 30.9648C19.2793 32.0523 20.2677 32.9193 21.4905 32.9193C22.7133 32.9193 23.7184 32.0376 23.7184 30.9648C23.7184 29.892 22.7133 29.0102 21.4905 29.0102H21.3732C20.1682 28.9815 19.0234 28.5418 18.182 27.7844C17.3406 27.027 16.8689 26.0117 16.8672 24.9541C16.8672 23.073 18.3245 21.5005 20.3012 21.0302V19.3843C20.3012 18.7964 20.8372 18.3262 21.5072 18.3262C22.1773 18.3262 22.7133 18.7964 22.7133 19.3843V21.0302C24.6899 21.5005 26.1473 23.073 26.1473 24.9541C26.1473 25.5419 25.6112 26.0122 24.9412 26.0122C24.2712 26.0122 23.7351 25.5419 23.7351 24.9541C23.7351 23.8813 22.7301 22.9995 21.5072 22.9995C20.2844 22.9995 19.2793 23.8813 19.2793 24.9541C19.2793 26.0269 20.2844 26.9087 21.5072 26.9087Z" fill="#6E5DCF"/>
<path d="M12.6169 5.97399L17.2837 10.7649L16.7795 11.2587C7.17448 13.1486 0 20.6744 0 29.6714C0 37.5808 7.31686 44 16.3323 44H26.6677C35.6831 44 43 37.5822 43 29.6728C43.0167 20.6744 35.8422 13.1486 26.2372 11.2587C26.2762 10.9481 26.2123 10.6343 26.0529 10.3549L30.0229 6.36784L30.2792 6.02101C30.5785 5.44835 30.655 4.80529 30.4971 4.19073C30.3392 3.57618 29.9555 3.02416 29.4051 2.61957C28.8546 2.21498 28.168 1.98024 27.4506 1.95144C26.7333 1.92264 26.0251 2.10137 25.4348 2.46016L24.0227 0.990557C23.7059 0.679561 23.318 0.430614 22.8843 0.25994C22.4505 0.0892669 21.9806 0.000697373 21.5052 4.10163e-06C21.0298 -0.00068917 20.5596 0.0865093 20.1252 0.255917C19.6908 0.425324 19.3019 0.673138 18.984 0.983209L17.5049 2.43224C16.9161 2.06599 16.2063 1.88013 15.4851 1.9034C14.7638 1.92667 14.0714 2.15778 13.515 2.56099C12.9585 2.96419 12.569 3.51702 12.4067 4.13396C12.2443 4.7509 12.3182 5.39759 12.6169 5.97399ZM18.9806 8.00939L16.1396 5.12896C16.7997 5.40798 17.5465 5.48721 18.2633 5.35426C18.9801 5.2213 19.6265 4.88367 20.1013 4.39416L21.4414 2.86871L22.9289 4.41474C23.3926 4.88792 24.0183 5.21695 24.7126 5.35281C25.4068 5.48867 26.1326 5.42407 26.7816 5.16864L23.954 8.00939H18.9806ZM3.35021 29.6714C3.35021 20.8714 11.4778 13.7408 21.5084 13.7408C31.5389 13.7408 39.6665 20.8714 39.6498 29.6684V29.6714C39.6484 32.6917 38.2803 35.5879 35.8459 37.7236C33.4116 39.8593 30.1103 41.0596 26.6677 41.0608H16.3323C12.8896 41.0596 9.58837 39.8593 7.15404 37.7236C4.71972 35.5879 3.35154 32.6917 3.35021 29.6714Z" fill="#6E5DCF"/>
</svg>
